<svg width="580" height="553" viewBox="0 0 580 553" fill="none" xmlns="http://www.w3.org/2000/svg">
<g clip-path="url(#clip0_202_332)">
<path d="M423.322 311.165C410.009 311.165 399.181 300.322 399.181 287.004C399.181 273.685 410.009 262.851 423.322 262.851C436.636 262.851 447.465 273.683 447.465 287.004C447.465 300.325 436.636 311.165 423.322 311.165ZM156.471 311.165C143.158 311.165 132.33 300.322 132.33 287.004C132.33 273.685 143.156 262.851 156.471 262.851C169.783 262.851 180.612 273.683 180.612 287.004C180.612 300.325 169.785 311.165 156.471 311.165ZM431.981 165.667L480.232 82.0594C481.56 79.752 481.919 77.0117 481.23 74.4398C480.542 71.8679 478.861 69.6744 476.558 68.3407C474.251 67.0125 471.512 66.6536 468.942 67.3427C466.371 68.0318 464.179 69.7128 462.845 72.0168L413.991 156.681C376.628 139.624 334.67 130.121 289.896 130.121C245.123 130.121 203.164 139.624 165.804 156.681L116.947 72.0168C115.613 69.7128 113.421 68.0318 110.851 67.3427C108.28 66.6536 105.541 67.0125 103.235 68.3407C100.93 69.6732 99.2484 71.8667 98.5594 74.4391C97.8704 77.0115 98.2304 79.7524 99.5604 82.0594L147.812 165.667C64.9573 210.751 8.29007 294.67 0 393.815H579.792C571.496 294.672 514.829 210.751 431.981 165.665" fill="#3DDB85"/>
</g>
<defs>
<clipPath id="clip0_202_332">
<rect width="580" height="553" fill="white"/>
</clipPath>
</defs>
</svg>
